<?xml version="1.0" standalone="no"?>
<svg xmlns="http://www.w3.org/2000/svg" width="300" height="300"><defs><clipPath id="clip-path-dot-color"><rect x="5" y="85" width="10" height="10" transform="rotate(0,10,90)"/><rect x="5" y="175" width="10" height="10" transform="rotate(0,10,180)"/><rect x="5" y="185" width="10" height="10" transform="rotate(0,10,190)"/><rect x="5" y="205" width="10" height="10" transform="rotate(0,10,210)"/><rect x="15" y="95" width="10" height="10" transform="rotate(0,20,100)"/><rect x="15" y="105" width="10" height="10" transform="rotate(0,20,110)"/><rect x="15" y="125" width="10" height="10" transform="rotate(0,20,130)"/><rect x="15" y="145" width="10" height="10" transform="rotate(0,20,150)"/><rect x="15" y="165" width="10" height="10" transform="rotate(0,20,170)"/><rect x="15" y="175" width="10" height="10" transform="rotate(0,20,180)"/><rect x="15" y="195" width="10" height="10" transform="rotate(0,20,200)"/><rect x="25" y="95" width="10" height="10" transform="rotate(0,30,100)"/><rect x="25" y="115" width="10" height="10" transform="rotate(0,30,120)"/><rect x="25" y="155" width="10" height="10" transform="rotate(0,30,160)"/><rect x="25" y="185" width="10" height="10" transform="rotate(0,30,190)"/><rect x="25" y="195" width="10" height="10" transform="rotate(0,30,200)"/><rect x="25" y="205" width="10" height="10" transform="rotate(0,30,210)"/><rect x="35" y="105" width="10" height="10" transform="rotate(0,40,110)"/><rect x="35" y="125" width="10" height="10" transform="rotate(0,40,130)"/><rect x="35" y="135" width="10" height="10" transform="rotate(0,40,140)"/><rect x="35" y="155" width="10" height="10" transform="rotate(0,40,160)"/><rect x="35" y="165" width="10" height="10" transform="rotate(0,40,170)"/><rect x="35" y="175" width="10" height="10" transform="rotate(0,40,180)"/><rect x="35" y="195" width="10" height="10" transform="rotate(0,40,200)"/><rect x="45" y="85" width="10" height="10" transform="rotate(0,50,90)"/><rect x="45" y="115" width="10" height="10" transform="rotate(0,50,120)"/><rect x="45" y="125" width="10" height="10" transform="rotate(0,50,130)"/><rect x="45" y="145" width="10" height="10" transform="rotate(0,50,150)"/><rect x="45" y="165" width="10" height="10" transform="rotate(0,50,170)"/><rect x="45" y="185" width="10" height="10" transform="rotate(0,50,190)"/><rect x="45" y="195" width="10" height="10" transform="rotate(0,50,200)"/><rect x="55" y="85" width="10" height="10" transform="rotate(0,60,90)"/><rect x="55" y="95" width="10" height="10" transform="rotate(0,60,100)"/><rect x="55" y="105" width="10" height="10" transform="rotate(0,60,110)"/><rect x="55" y="115" width="10" height="10" transform="rotate(0,60,120)"/><rect x="55" y="145" width="10" height="10" transform="rotate(0,60,150)"/><rect x="55" y="155" width="10" height="10" transform="rotate(0,60,160)"/><rect x="55" y="185" width="10" height="10" transform="rotate(0,60,190)"/><rect x="55" y="205" width="10" height="10" transform="rotate(0,60,210)"/><rect x="65" y="85" width="10" height="10" transform="rotate(0,70,90)"/><rect x="65" y="105" width="10" height="10" transform="rotate(0,70,110)"/><rect x="65" y="125" width="10" height="10" transform="rotate(0,70,130)"/><rect x="65" y="145" width="10" height="10" transform="rotate(0,70,150)"/><rect x="65" y="165" width="10" height="10" transform="rotate(0,70,170)"/><rect x="65" y="185" width="10" height="10" transform="rotate(0,70,190)"/><rect x="65" y="205" width="10" height="10" transform="rotate(0,70,210)"/><rect x="75" y="115" width="10" height="10" transform="rotate(0,80,120)"/><rect x="75" y="145" width="10" height="10" transform="rotate(0,80,150)"/><rect x="75" y="155" width="10" height="10" transform="rotate(0,80,160)"/><rect x="75" y="195" width="10" height="10" transform="rotate(0,80,200)"/><rect x="75" y="205" width="10" height="10" transform="rotate(0,80,210)"/><rect x="85" y="15" width="10" height="10" transform="rotate(0,90,20)"/><rect x="85" y="25" width="10" height="10" transform="rotate(0,90,30)"/><rect x="85" y="35" width="10" height="10" transform="rotate(0,90,40)"/><rect x="85" y="45" width="10" height="10" transform="rotate(0,90,50)"/><rect x="85" y="55" width="10" height="10" transform="rotate(0,90,60)"/><rect x="85" y="65" width="10" height="10" transform="rotate(0,90,70)"/><rect x="85" y="75" width="10" height="10" transform="rotate(0,90,80)"/><rect x="85" y="125" width="10" height="10" transform="rotate(0,90,130)"/><rect x="85" y="135" width="10" height="10" transform="rotate(0,90,140)"/><rect x="85" y="165" width="10" height="10" transform="rotate(0,90,170)"/><rect x="85" y="185" width="10" height="10" transform="rotate(0,90,190)"/><rect x="85" y="205" width="10" height="10" transform="rotate(0,90,210)"/><rect x="85" y="235" width="10" height="10" transform="rotate(0,90,240)"/><rect x="85" y="245" width="10" height="10" transform="rotate(0,90,250)"/><rect x="85" y="285" width="10" height="10" transform="rotate(0,90,290)"/><rect x="95" y="5" width="10" height="10" transform="rotate(0,100,10)"/><rect x="95" y="15" width="10" height="10" transform="rotate(0,100,20)"/><rect x="95" y="35" width="10" height="10" transform="rotate(0,100,40)"/><rect x="95" y="45" width="10" height="10" transform="rotate(0,100,50)"/><rect x="95" y="55" width="10" height="10" transform="rotate(0,100,60)"/><rect x="95" y="85" width="10" height="10" transform="rotate(0,100,90)"/><rect x="95" y="105" width="10" height="10" transform="rotate(0,100,110)"/><rect x="95" y="115" width="10" height="10" transform="rotate(0,100,120)"/><rect x="95" y="155" width="10" height="10" transform="rotate(0,100,160)"/><rect x="95" y="165" width="10" height="10" transform="rotate(0,100,170)"/><rect x="95" y="215" width="10" height="10" transform="rotate(0,100,220)"/><rect x="95" y="225" width="10" height="10" transform="rotate(0,100,230)"/><rect x="95" y="235" width="10" height="10" transform="rotate(0,100,240)"/><rect x="95" y="245" width="10" height="10" transform="rotate(0,100,250)"/><rect x="95" y="255" width="10" height="10" transform="rotate(0,100,260)"/><rect x="95" y="285" width="10" height="10" transform="rotate(0,100,290)"/><rect x="105" y="35" width="10" height="10" transform="rotate(0,110,40)"/><rect x="105" y="45" width="10" height="10" transform="rotate(0,110,50)"/><rect x="105" y="65" width="10" height="10" transform="rotate(0,110,70)"/><rect x="105" y="75" width="10" height="10" transform="rotate(0,110,80)"/><rect x="105" y="85" width="10" height="10" transform="rotate(0,110,90)"/><rect x="105" y="95" width="10" height="10" transform="rotate(0,110,100)"/><rect x="105" y="105" width="10" height="10" transform="rotate(0,110,110)"/><rect x="105" y="115" width="10" height="10" transform="rotate(0,110,120)"/><rect x="105" y="135" width="10" height="10" transform="rotate(0,110,140)"/><rect x="105" y="165" width="10" height="10" transform="rotate(0,110,170)"/><rect x="105" y="205" width="10" height="10" transform="rotate(0,110,210)"/><rect x="105" y="225" width="10" height="10" transform="rotate(0,110,230)"/><rect x="105" y="235" width="10" height="10" transform="rotate(0,110,240)"/><rect x="105" y="265" width="10" height="10" transform="rotate(0,110,270)"/><rect x="115" y="15" width="10" height="10" transform="rotate(0,120,20)"/><rect x="115" y="25" width="10" height="10" transform="rotate(0,120,30)"/><rect x="115" y="55" width="10" height="10" transform="rotate(0,120,60)"/><rect x="115" y="75" width="10" height="10" transform="rotate(0,120,80)"/><rect x="115" y="155" width="10" height="10" transform="rotate(0,120,160)"/><rect x="115" y="185" width="10" height="10" transform="rotate(0,120,190)"/><rect x="115" y="225" width="10" height="10" transform="rotate(0,120,230)"/><rect x="115" y="245" width="10" height="10" transform="rotate(0,120,250)"/><rect x="115" y="255" width="10" height="10" transform="rotate(0,120,260)"/><rect x="115" y="275" width="10" height="10" transform="rotate(0,120,280)"/><rect x="125" y="35" width="10" height="10" transform="rotate(0,130,40)"/><rect x="125" y="55" width="10" height="10" transform="rotate(0,130,60)"/><rect x="125" y="65" width="10" height="10" transform="rotate(0,130,70)"/><rect x="125" y="85" width="10" height="10" transform="rotate(0,130,90)"/><rect x="125" y="95" width="10" height="10" transform="rotate(0,130,100)"/><rect x="125" y="105" width="10" height="10" transform="rotate(0,130,110)"/><rect x="125" y="115" width="10" height="10" transform="rotate(0,130,120)"/><rect x="125" y="125" width="10" height="10" transform="rotate(0,130,130)"/><rect x="125" y="145" width="10" height="10" transform="rotate(0,130,150)"/><rect x="125" y="155" width="10" height="10" transform="rotate(0,130,160)"/><rect x="125" y="175" width="10" height="10" transform="rotate(0,130,180)"/><rect x="125" y="205" width="10" height="10" transform="rotate(0,130,210)"/><rect x="125" y="215" width="10" height="10" transform="rotate(0,130,220)"/><rect x="125" y="265" width="10" height="10" transform="rotate(0,130,270)"/><rect x="125" y="275" width="10" height="10" transform="rotate(0,130,280)"/><rect x="125" y="285" width="10" height="10" transform="rotate(0,130,290)"/><rect x="135" y="15" width="10" height="10" transform="rotate(0,140,20)"/><rect x="135" y="35" width="10" height="10" transform="rotate(0,140,40)"/><rect x="135" y="45" width="10" height="10" transform="rotate(0,140,50)"/><rect x="135" y="75" width="10" height="10" transform="rotate(0,140,80)"/><rect x="135" y="95" width="10" height="10" transform="rotate(0,140,100)"/><rect x="135" y="105" width="10" height="10" transform="rotate(0,140,110)"/><rect x="135" y="115" width="10" height="10" transform="rotate(0,140,120)"/><rect x="135" y="125" width="10" height="10" transform="rotate(0,140,130)"/><rect x="135" y="135" width="10" height="10" transform="rotate(0,140,140)"/><rect x="135" y="155" width="10" height="10" transform="rotate(0,140,160)"/><rect x="135" y="165" width="10" height="10" transform="rotate(0,140,170)"/><rect x="135" y="175" width="10" height="10" transform="rotate(0,140,180)"/><rect x="135" y="185" width="10" height="10" transform="rotate(0,140,190)"/><rect x="135" y="195" width="10" height="10" transform="rotate(0,140,200)"/><rect x="135" y="205" width="10" height="10" transform="rotate(0,140,210)"/><rect x="135" y="215" width="10" height="10" transform="rotate(0,140,220)"/><rect x="135" y="225" width="10" height="10" transform="rotate(0,140,230)"/><rect x="135" y="245" width="10" height="10" transform="rotate(0,140,250)"/><rect x="135" y="255" width="10" height="10" transform="rotate(0,140,260)"/><rect x="135" y="285" width="10" height="10" transform="rotate(0,140,290)"/><rect x="145" y="65" width="10" height="10" transform="rotate(0,150,70)"/><rect x="145" y="95" width="10" height="10" transform="rotate(0,150,100)"/><rect x="145" y="125" width="10" height="10" transform="rotate(0,150,130)"/><rect x="145" y="165" width="10" height="10" transform="rotate(0,150,170)"/><rect x="145" y="175" width="10" height="10" transform="rotate(0,150,180)"/><rect x="145" y="205" width="10" height="10" transform="rotate(0,150,210)"/><rect x="145" y="225" width="10" height="10" transform="rotate(0,150,230)"/><rect x="155" y="15" width="10" height="10" transform="rotate(0,160,20)"/><rect x="155" y="25" width="10" height="10" transform="rotate(0,160,30)"/><rect x="155" y="35" width="10" height="10" transform="rotate(0,160,40)"/><rect x="155" y="55" width="10" height="10" transform="rotate(0,160,60)"/><rect x="155" y="85" width="10" height="10" transform="rotate(0,160,90)"/><rect x="155" y="115" width="10" height="10" transform="rotate(0,160,120)"/><rect x="155" y="125" width="10" height="10" transform="rotate(0,160,130)"/><rect x="155" y="145" width="10" height="10" transform="rotate(0,160,150)"/><rect x="155" y="165" width="10" height="10" transform="rotate(0,160,170)"/><rect x="155" y="175" width="10" height="10" transform="rotate(0,160,180)"/><rect x="155" y="185" width="10" height="10" transform="rotate(0,160,190)"/><rect x="155" y="195" width="10" height="10" transform="rotate(0,160,200)"/><rect x="155" y="205" width="10" height="10" transform="rotate(0,160,210)"/><rect x="155" y="225" width="10" height="10" transform="rotate(0,160,230)"/><rect x="155" y="255" width="10" height="10" transform="rotate(0,160,260)"/><rect x="165" y="5" width="10" height="10" transform="rotate(0,170,10)"/><rect x="165" y="25" width="10" height="10" transform="rotate(0,170,30)"/><rect x="165" y="35" width="10" height="10" transform="rotate(0,170,40)"/><rect x="165" y="55" width="10" height="10" transform="rotate(0,170,60)"/><rect x="165" y="65" width="10" height="10" transform="rotate(0,170,70)"/><rect x="165" y="75" width="10" height="10" transform="rotate(0,170,80)"/><rect x="165" y="85" width="10" height="10" transform="rotate(0,170,90)"/><rect x="165" y="125" width="10" height="10" transform="rotate(0,170,130)"/><rect x="165" y="165" width="10" height="10" transform="rotate(0,170,170)"/><rect x="165" y="255" width="10" height="10" transform="rotate(0,170,260)"/><rect x="165" y="265" width="10" height="10" transform="rotate(0,170,270)"/><rect x="175" y="5" width="10" height="10" transform="rotate(0,180,10)"/><rect x="175" y="25" width="10" height="10" transform="rotate(0,180,30)"/><rect x="175" y="55" width="10" height="10" transform="rotate(0,180,60)"/><rect x="175" y="75" width="10" height="10" transform="rotate(0,180,80)"/><rect x="175" y="95" width="10" height="10" transform="rotate(0,180,100)"/><rect x="175" y="115" width="10" height="10" transform="rotate(0,180,120)"/><rect x="175" y="145" width="10" height="10" transform="rotate(0,180,150)"/><rect x="175" y="155" width="10" height="10" transform="rotate(0,180,160)"/><rect x="175" y="185" width="10" height="10" transform="rotate(0,180,190)"/><rect x="175" y="205" width="10" height="10" transform="rotate(0,180,210)"/><rect x="175" y="215" width="10" height="10" transform="rotate(0,180,220)"/><rect x="175" y="225" width="10" height="10" transform="rotate(0,180,230)"/><rect x="175" y="235" width="10" height="10" transform="rotate(0,180,240)"/><rect x="175" y="245" width="10" height="10" transform="rotate(0,180,250)"/><rect x="175" y="255" width="10" height="10" transform="rotate(0,180,260)"/><rect x="175" y="275" width="10" height="10" transform="rotate(0,180,280)"/><rect x="175" y="285" width="10" height="10" transform="rotate(0,180,290)"/><rect x="185" y="5" width="10" height="10" transform="rotate(0,190,10)"/><rect x="185" y="25" width="10" height="10" transform="rotate(0,190,30)"/><rect x="185" y="35" width="10" height="10" transform="rotate(0,190,40)"/><rect x="185" y="55" width="10" height="10" transform="rotate(0,190,60)"/><rect x="185" y="65" width="10" height="10" transform="rotate(0,190,70)"/><rect x="185" y="75" width="10" height="10" transform="rotate(0,190,80)"/><rect x="185" y="85" width="10" height="10" transform="rotate(0,190,90)"/><rect x="185" y="105" width="10" height="10" transform="rotate(0,190,110)"/><rect x="185" y="115" width="10" height="10" transform="rotate(0,190,120)"/><rect x="185" y="125" width="10" height="10" transform="rotate(0,190,130)"/><rect x="185" y="145" width="10" height="10" transform="rotate(0,190,150)"/><rect x="185" y="155" width="10" height="10" transform="rotate(0,190,160)"/><rect x="185" y="165" width="10" height="10" transform="rotate(0,190,170)"/><rect x="185" y="195" width="10" height="10" transform="rotate(0,190,200)"/><rect x="185" y="225" width="10" height="10" transform="rotate(0,190,230)"/><rect x="185" y="255" width="10" height="10" transform="rotate(0,190,260)"/><rect x="195" y="5" width="10" height="10" transform="rotate(0,200,10)"/><rect x="195" y="25" width="10" height="10" transform="rotate(0,200,30)"/><rect x="195" y="35" width="10" height="10" transform="rotate(0,200,40)"/><rect x="195" y="45" width="10" height="10" transform="rotate(0,200,50)"/><rect x="195" y="55" width="10" height="10" transform="rotate(0,200,60)"/><rect x="195" y="85" width="10" height="10" transform="rotate(0,200,90)"/><rect x="195" y="105" width="10" height="10" transform="rotate(0,200,110)"/><rect x="195" y="155" width="10" height="10" transform="rotate(0,200,160)"/><rect x="195" y="195" width="10" height="10" transform="rotate(0,200,200)"/><rect x="195" y="205" width="10" height="10" transform="rotate(0,200,210)"/><rect x="195" y="225" width="10" height="10" transform="rotate(0,200,230)"/><rect x="195" y="235" width="10" height="10" transform="rotate(0,200,240)"/><rect x="195" y="255" width="10" height="10" transform="rotate(0,200,260)"/><rect x="195" y="275" width="10" height="10" transform="rotate(0,200,280)"/><rect x="205" y="5" width="10" height="10" transform="rotate(0,210,10)"/><rect x="205" y="25" width="10" height="10" transform="rotate(0,210,30)"/><rect x="205" y="35" width="10" height="10" transform="rotate(0,210,40)"/><rect x="205" y="45" width="10" height="10" transform="rotate(0,210,50)"/><rect x="205" y="65" width="10" height="10" transform="rotate(0,210,70)"/><rect x="205" y="85" width="10" height="10" transform="rotate(0,210,90)"/><rect x="205" y="95" width="10" height="10" transform="rotate(0,210,100)"/><rect x="205" y="105" width="10" height="10" transform="rotate(0,210,110)"/><rect x="205" y="135" width="10" height="10" transform="rotate(0,210,140)"/><rect x="205" y="155" width="10" height="10" transform="rotate(0,210,160)"/><rect x="205" y="175" width="10" height="10" transform="rotate(0,210,180)"/><rect x="205" y="195" width="10" height="10" transform="rotate(0,210,200)"/><rect x="205" y="205" width="10" height="10" transform="rotate(0,210,210)"/><rect x="205" y="215" width="10" height="10" transform="rotate(0,210,220)"/><rect x="205" y="225" width="10" height="10" transform="rotate(0,210,230)"/><rect x="205" y="235" width="10" height="10" transform="rotate(0,210,240)"/><rect x="205" y="245" width="10" height="10" transform="rotate(0,210,250)"/><rect x="205" y="265" width="10" height="10" transform="rotate(0,210,270)"/><rect x="205" y="275" width="10" height="10" transform="rotate(0,210,280)"/><rect x="205" y="285" width="10" height="10" transform="rotate(0,210,290)"/><rect x="215" y="85" width="10" height="10" transform="rotate(0,220,90)"/><rect x="215" y="145" width="10" height="10" transform="rotate(0,220,150)"/><rect x="215" y="165" width="10" height="10" transform="rotate(0,220,170)"/><rect x="215" y="185" width="10" height="10" transform="rotate(0,220,190)"/><rect x="215" y="195" width="10" height="10" transform="rotate(0,220,200)"/><rect x="215" y="205" width="10" height="10" transform="rotate(0,220,210)"/><rect x="215" y="245" width="10" height="10" transform="rotate(0,220,250)"/><rect x="215" y="255" width="10" height="10" transform="rotate(0,220,260)"/><rect x="215" y="275" width="10" height="10" transform="rotate(0,220,280)"/><rect x="215" y="285" width="10" height="10" transform="rotate(0,220,290)"/><rect x="225" y="85" width="10" height="10" transform="rotate(0,230,90)"/><rect x="225" y="95" width="10" height="10" transform="rotate(0,230,100)"/><rect x="225" y="115" width="10" height="10" transform="rotate(0,230,120)"/><rect x="225" y="125" width="10" height="10" transform="rotate(0,230,130)"/><rect x="225" y="135" width="10" height="10" transform="rotate(0,230,140)"/><rect x="225" y="155" width="10" height="10" transform="rotate(0,230,160)"/><rect x="225" y="185" width="10" height="10" transform="rotate(0,230,190)"/><rect x="225" y="195" width="10" height="10" transform="rotate(0,230,200)"/><rect x="225" y="205" width="10" height="10" transform="rotate(0,230,210)"/><rect x="225" y="225" width="10" height="10" transform="rotate(0,230,230)"/><rect x="225" y="245" width="10" height="10" transform="rotate(0,230,250)"/><rect x="235" y="85" width="10" height="10" transform="rotate(0,240,90)"/><rect x="235" y="125" width="10" height="10" transform="rotate(0,240,130)"/><rect x="235" y="165" width="10" height="10" transform="rotate(0,240,170)"/><rect x="235" y="195" width="10" height="10" transform="rotate(0,240,200)"/><rect x="235" y="205" width="10" height="10" transform="rotate(0,240,210)"/><rect x="235" y="245" width="10" height="10" transform="rotate(0,240,250)"/><rect x="235" y="255" width="10" height="10" transform="rotate(0,240,260)"/><rect x="235" y="275" width="10" height="10" transform="rotate(0,240,280)"/><rect x="245" y="85" width="10" height="10" transform="rotate(0,250,90)"/><rect x="245" y="95" width="10" height="10" transform="rotate(0,250,100)"/><rect x="245" y="105" width="10" height="10" transform="rotate(0,250,110)"/><rect x="245" y="115" width="10" height="10" transform="rotate(0,250,120)"/><rect x="245" y="125" width="10" height="10" transform="rotate(0,250,130)"/><rect x="245" y="145" width="10" height="10" transform="rotate(0,250,150)"/><rect x="245" y="185" width="10" height="10" transform="rotate(0,250,190)"/><rect x="245" y="205" width="10" height="10" transform="rotate(0,250,210)"/><rect x="245" y="215" width="10" height="10" transform="rotate(0,250,220)"/><rect x="245" y="225" width="10" height="10" transform="rotate(0,250,230)"/><rect x="245" y="235" width="10" height="10" transform="rotate(0,250,240)"/><rect x="245" y="245" width="10" height="10" transform="rotate(0,250,250)"/><rect x="245" y="255" width="10" height="10" transform="rotate(0,250,260)"/><rect x="245" y="265" width="10" height="10" transform="rotate(0,250,270)"/><rect x="255" y="85" width="10" height="10" transform="rotate(0,260,90)"/><rect x="255" y="95" width="10" height="10" transform="rotate(0,260,100)"/><rect x="255" y="105" width="10" height="10" transform="rotate(0,260,110)"/><rect x="255" y="125" width="10" height="10" transform="rotate(0,260,130)"/><rect x="255" y="145" width="10" height="10" transform="rotate(0,260,150)"/><rect x="255" y="155" width="10" height="10" transform="rotate(0,260,160)"/><rect x="255" y="165" width="10" height="10" transform="rotate(0,260,170)"/><rect x="255" y="175" width="10" height="10" transform="rotate(0,260,180)"/><rect x="255" y="195" width="10" height="10" transform="rotate(0,260,200)"/><rect x="255" y="205" width="10" height="10" transform="rotate(0,260,210)"/><rect x="255" y="235" width="10" height="10" transform="rotate(0,260,240)"/><rect x="255" y="255" width="10" height="10" transform="rotate(0,260,260)"/><rect x="255" y="265" width="10" height="10" transform="rotate(0,260,270)"/><rect x="265" y="85" width="10" height="10" transform="rotate(0,270,90)"/><rect x="265" y="115" width="10" height="10" transform="rotate(0,270,120)"/><rect x="265" y="175" width="10" height="10" transform="rotate(0,270,180)"/><rect x="265" y="195" width="10" height="10" transform="rotate(0,270,200)"/><rect x="265" y="225" width="10" height="10" transform="rotate(0,270,230)"/><rect x="265" y="245" width="10" height="10" transform="rotate(0,270,250)"/><rect x="265" y="255" width="10" height="10" transform="rotate(0,270,260)"/><rect x="265" y="275" width="10" height="10" transform="rotate(0,270,280)"/><rect x="275" y="85" width="10" height="10" transform="rotate(0,280,90)"/><rect x="275" y="165" width="10" height="10" transform="rotate(0,280,170)"/><rect x="275" y="225" width="10" height="10" transform="rotate(0,280,230)"/><rect x="275" y="245" width="10" height="10" transform="rotate(0,280,250)"/><rect x="275" y="275" width="10" height="10" transform="rotate(0,280,280)"/><rect x="285" y="95" width="10" height="10" transform="rotate(0,290,100)"/><rect x="285" y="105" width="10" height="10" transform="rotate(0,290,110)"/><rect x="285" y="115" width="10" height="10" transform="rotate(0,290,120)"/><rect x="285" y="125" width="10" height="10" transform="rotate(0,290,130)"/><rect x="285" y="135" width="10" height="10" transform="rotate(0,290,140)"/><rect x="285" y="145" width="10" height="10" transform="rotate(0,290,150)"/><rect x="285" y="175" width="10" height="10" transform="rotate(0,290,180)"/><rect x="285" y="245" width="10" height="10" transform="rotate(0,290,250)"/><rect x="285" y="265" width="10" height="10" transform="rotate(0,290,270)"/><path clip-rule="evenodd" d="M 5 5v 70h 70v -70zM 15 15h 50v 50h -50z" transform="rotate(0,40,40)"/><rect x="25" y="25" width="10" height="10" transform="rotate(0,30,30)"/><rect x="25" y="35" width="10" height="10" transform="rotate(0,30,40)"/><rect x="25" y="45" width="10" height="10" transform="rotate(0,30,50)"/><rect x="35" y="25" width="10" height="10" transform="rotate(0,40,30)"/><rect x="35" y="35" width="10" height="10" transform="rotate(0,40,40)"/><rect x="35" y="45" width="10" height="10" transform="rotate(0,40,50)"/><rect x="45" y="25" width="10" height="10" transform="rotate(0,50,30)"/><rect x="45" y="35" width="10" height="10" transform="rotate(0,50,40)"/><rect x="45" y="45" width="10" height="10" transform="rotate(0,50,50)"/><path clip-rule="evenodd" d="M 225 5v 70h 70v -70zM 235 15h 50v 50h -50z" transform="rotate(90,260,40)"/><rect x="245" y="25" width="10" height="10" transform="rotate(0,250,30)"/><rect x="245" y="35" width="10" height="10" transform="rotate(0,250,40)"/><rect x="245" y="45" width="10" height="10" transform="rotate(0,250,50)"/><rect x="255" y="25" width="10" height="10" transform="rotate(0,260,30)"/><rect x="255" y="35" width="10" height="10" transform="rotate(0,260,40)"/><rect x="255" y="45" width="10" height="10" transform="rotate(0,260,50)"/><rect x="265" y="25" width="10" height="10" transform="rotate(0,270,30)"/><rect x="265" y="35" width="10" height="10" transform="rotate(0,270,40)"/><rect x="265" y="45" width="10" height="10" transform="rotate(0,270,50)"/><path clip-rule="evenodd" d="M 5 225v 70h 70v -70zM 15 235h 50v 50h -50z" transform="rotate(-90,40,260)"/><rect x="25" y="245" width="10" height="10" transform="rotate(0,30,250)"/><rect x="25" y="255" width="10" height="10" transform="rotate(0,30,260)"/><rect x="25" y="265" width="10" height="10" transform="rotate(0,30,270)"/><rect x="35" y="245" width="10" height="10" transform="rotate(0,40,250)"/><rect x="35" y="255" width="10" height="10" transform="rotate(0,40,260)"/><rect x="35" y="265" width="10" height="10" transform="rotate(0,40,270)"/><rect x="45" y="245" width="10" height="10" transform="rotate(0,50,250)"/><rect x="45" y="255" width="10" height="10" transform="rotate(0,50,260)"/><rect x="45" y="265" width="10" height="10" transform="rotate(0,50,270)"/></clipPath></defs><rect x="0" y="0" height="300" width="300" clip-path="url('#clip-path-background-color')" fill="#fff"/><rect x="0" y="0" height="300" width="300" clip-path="url('#clip-path-dot-color')" fill="#000000"/></svg>